<svg width="48" height="48" viewBox="0 0 48 48" fill="none" xmlns="http://www.w3.org/2000/svg">
<path d="M48 24C48 37.2548 37.2548 48 24 48C10.7452 48 0 37.2548 0 24C0 10.7452 10.7452 0 24 0C37.2548 0 48 10.7452 48 24Z" fill="#247778"/>
<path d="M22.7071 26.2929C22.3166 25.9024 21.6834 25.9024 21.2929 26.2929C20.9024 26.6834 20.9024 27.3166 21.2929 27.7071L26.2929 32.7071C26.6834 33.0976 27.3166 33.0976 27.7071 32.7071L32.7071 27.7071C33.0976 27.3166 33.0976 26.6834 32.7071 26.2929C32.3166 25.9024 31.6834 25.9024 31.2929 26.2929L28 29.5858V20C28 18.6739 27.4732 17.4022 26.5355 16.4645C25.5979 15.5268 24.3261 15 23 15H16C15.4477 15 15 15.4477 15 16C15 16.5523 15.4477 17 16 17H23C23.7956 17 24.5587 17.3161 25.1213 17.8787C25.6839 18.4413 26 19.2043 26 20V29.5858L22.7071 26.2929Z" fill="#FFFFE3"/>
<rect x="1" y="15" width="17" height="2" fill="#FFFFE3"/>
</svg>
