<svg width="88" height="100" viewBox="0 0 88 100" fill="none" xmlns="http://www.w3.org/2000/svg">
<path d="M86.718 22.912L44.4502 0.152408C44.0844 -0.0508027 43.6577 -0.0508027 43.2919 0.152408L1.02405 22.912C0.637953 23.1152 0.373779 23.542 0.373779 23.989V76.011C0.373779 76.458 0.617632 76.8645 1.02405 77.088L43.2919 99.8476C43.6577 100.051 44.0844 100.051 44.4502 99.8476L86.718 77.088C87.1041 76.8848 87.3683 76.458 87.3683 76.011V23.989C87.3683 23.542 87.1244 23.1355 86.718 22.912ZM43.8812 2.61126L83.5683 23.989L43.8812 45.3668L4.19414 23.989L43.8812 2.61126ZM2.83263 26.0415L42.6619 47.4802V96.7385L2.83263 75.2794V26.0415ZM45.1005 96.7385V47.4802L84.9298 26.0415V75.2997L45.1005 96.7385Z" fill="#247778"/>
<path d="M13.8263 25.0664L43.2919 41.3233C43.6577 41.5265 44.1047 41.5265 44.4705 41.3233L73.7329 25.0664C74.3222 24.7413 74.5254 23.9894 74.2003 23.4001C74.0986 23.1969 73.9158 23.0343 73.7329 22.9327L44.4705 6.67585C44.1047 6.47263 43.6577 6.47263 43.2919 6.67585L13.8263 22.9327C13.237 23.2578 13.0338 24.0097 13.359 24.599C13.4606 24.7819 13.6231 24.9445 13.8263 25.0664ZM45.1005 38.1735V9.80529L70.6237 23.9894L45.1005 38.1735ZM42.6619 9.80529V38.1938L16.9355 23.9894L42.6619 9.80529Z" fill="#247778"/>
<path d="M38.3742 49.3294L8.29905 33.0725C7.70974 32.7474 6.95786 32.9709 6.65305 33.5602C6.53112 33.7431 6.49048 33.9463 6.49048 34.1495V72.3531C6.49048 72.8002 6.73433 73.2066 7.14075 73.4302L37.2159 89.687C37.9881 90.1341 39.0448 89.5041 39.0245 88.61V50.4064C39.0042 49.9593 38.7603 49.5529 38.3742 49.3294ZM36.5657 51.1379V55.3647L8.92901 70.3007V36.202L36.5657 51.1379ZM10.2702 72.3531L36.5657 58.1487V86.5779L10.2702 72.3531Z" fill="#247778"/>
<path d="M80.6826 33.1136C80.3169 32.8901 79.8495 32.8901 79.4837 33.0933L49.4085 49.3502C49.0224 49.5534 48.7582 49.9801 48.7786 50.4272V88.6308C48.7582 89.5249 49.7946 90.1549 50.5871 89.7078L80.6623 73.451C81.0484 73.2478 81.3126 72.821 81.2923 72.374V34.15C81.272 33.7233 81.0484 33.3168 80.6826 33.1136ZM78.8334 36.2024V70.3215L51.1968 55.3855V51.1588L78.8334 36.2024ZM51.1968 58.1492L77.4922 72.3536L51.1968 86.5581V58.1492Z" fill="#247778"/>
</svg>
