<svg width="1000" height="1000" viewBox="0 0 1000 1000" fill="none" xmlns="http://www.w3.org/2000/svg">
<g clip-path="url(#clip0_196_574)">
<circle cx="500" cy="500" r="500" fill="url(#paint0_radial_196_574)" fill-opacity="0.05"/>
<g opacity="0.25">
<path d="M895.525 907.525C932.625 870.426 932.625 810.275 895.525 773.175C858.426 736.075 798.275 736.075 761.175 773.175C724.075 810.275 724.075 870.426 761.175 907.525C798.275 944.625 858.426 944.625 895.525 907.525Z" fill="#161616"/>
<path d="M840.207 811.229C840.207 811.229 852.6 835.244 853.709 837.226C851.996 835.849 815.049 807.367 815.049 807.367C805.141 817.275 806.888 829.568 811.59 839.846C811.59 839.846 822.808 865.171 823.782 867.287C822.304 865.876 803.092 848.746 803.092 848.746C793.352 840.215 779.48 843.003 772.729 849.754L830.433 891.201C840.778 880.789 839.333 868.194 834.799 857.815C834.799 857.815 824.891 835.479 824.42 834.472C825.193 835.11 860.258 861.375 860.258 861.375C870.637 850.997 869.663 838.804 865.498 828.594L844.17 778.246C833.892 788.524 835.504 800.951 840.207 811.229Z" fill="#4152FF"/>
</g>
<g opacity="0.25">
<path d="M107.175 115.175C70.0753 152.275 70.0753 212.426 107.175 249.525C144.275 286.625 204.426 286.625 241.525 249.525C278.625 212.426 278.625 152.275 241.525 115.175C204.426 78.0754 144.275 78.0754 107.175 115.175Z" fill="#161616"/>
<path d="M162.494 211.471C162.494 211.471 150.1 187.456 148.992 185.475C150.705 186.852 187.651 215.334 187.651 215.334C197.559 205.426 195.813 193.133 191.111 182.855C191.111 182.855 179.892 157.53 178.918 155.414C180.396 156.824 199.608 173.954 199.608 173.954C209.349 182.485 223.22 179.698 229.971 172.947L172.268 131.499C161.923 141.912 163.367 154.507 167.902 164.886C167.902 164.886 177.81 187.221 178.28 188.229C177.508 187.591 142.442 161.325 142.442 161.325C132.064 171.704 133.038 183.896 137.203 194.107L158.531 244.454C168.808 234.177 167.196 221.749 162.494 211.471Z" fill="#4152FF"/>
</g>
<g opacity="0.25">
<circle cx="190.54" cy="839.54" r="95" transform="rotate(35.5846 190.54 839.54)" fill="#161616"/>
<path d="M150.023 868.957C157.131 874.042 167.028 872.401 172.113 865.293L181.327 852.417L168.45 843.203C161.342 838.118 151.446 839.759 146.36 846.867C141.274 853.974 142.915 863.871 150.023 868.957Z" fill="#0ACF83"/>
<path d="M164.787 821.113C169.873 814.005 179.769 812.364 186.877 817.45L199.754 826.664L181.327 852.417L168.45 843.203C161.342 838.118 159.701 828.221 164.787 821.113Z" fill="#A259FF"/>
<path d="M183.214 795.36C188.3 788.252 198.196 786.611 205.304 791.697L218.181 800.911L199.754 826.664L186.877 817.45C179.769 812.364 178.128 802.468 183.214 795.36Z" fill="#F24E1E"/>
<path d="M218.181 800.911L231.057 810.124C238.165 815.21 239.806 825.106 234.72 832.214C229.635 839.322 219.738 840.963 212.63 835.877L199.754 826.664L218.181 800.911Z" fill="#FF7262"/>
<path d="M216.293 857.967C211.208 865.075 201.311 866.716 194.203 861.63C187.096 856.545 185.454 846.648 190.54 839.54C195.626 832.432 205.522 830.791 212.63 835.877C219.738 840.963 221.379 850.859 216.293 857.967Z" fill="#1ABCFE"/>
</g>
<g opacity="0.25">
<circle cx="828.35" cy="182.35" r="95" transform="rotate(-135 828.35 182.35)" fill="#161616"/>
<path d="M873.134 159.959C866.954 153.778 856.922 153.778 850.742 159.959L839.546 171.154L850.742 182.35C856.922 188.53 866.954 188.53 873.134 182.35C879.314 176.17 879.314 166.139 873.134 159.959Z" fill="#0ACF83"/>
<path d="M850.742 204.742C844.562 210.922 834.531 210.922 828.351 204.742L817.155 193.546L839.546 171.154L850.742 182.35C856.922 188.53 856.922 198.562 850.742 204.742Z" fill="#A259FF"/>
<path d="M828.35 227.134C822.17 233.314 812.139 233.314 805.959 227.134L794.763 215.938L817.155 193.546L828.35 204.742C834.531 210.922 834.531 220.954 828.35 227.134Z" fill="#F24E1E"/>
<path d="M794.763 215.938L783.567 204.742C777.387 198.562 777.387 188.53 783.567 182.35C789.747 176.17 799.779 176.17 805.959 182.35L817.155 193.546L794.763 215.938Z" fill="#FF7262"/>
<path d="M805.959 159.959C812.139 153.778 822.17 153.778 828.35 159.959C834.531 166.139 834.531 176.17 828.35 182.35C822.17 188.53 812.139 188.53 805.959 182.35C799.779 176.17 799.779 166.139 805.959 159.959Z" fill="#1ABCFE"/>
</g>
</g>
<defs>
<radialGradient id="paint0_radial_196_574" cx="0" cy="0" r="1" gradientUnits="userSpaceOnUse" gradientTransform="translate(500 500) rotate(90) scale(500)">
<stop stop-color="#FFFFE3" stop-opacity="0"/>
<stop offset="1" stop-color="#247778"/>
</radialGradient>
<clipPath id="clip0_196_574">
<rect width="1000" height="1000" rx="500" fill="white"/>
</clipPath>
</defs>
</svg>
