<svg width="87" height="100" viewBox="0 0 87 100" fill="none" xmlns="http://www.w3.org/2000/svg">
<path d="M86.9742 46.7486V23.989C86.9742 23.542 86.7303 23.1355 86.3442 22.912L68.4617 13.1579C68.0959 12.9547 67.6489 12.9547 67.3034 13.1579L62.5889 15.7184V10.9835C62.5889 10.5365 62.3451 10.1301 61.959 9.90652L44.0764 0.152408C43.7106 -0.0508027 43.2636 -0.0508027 42.9181 0.152408L25.0356 9.90652C24.6495 10.1301 24.4056 10.5365 24.4056 10.9835V15.7184L19.7114 13.1579C19.3457 12.9547 18.8986 12.9547 18.5531 13.1579L0.670595 22.912C0.284495 23.1355 0.0406423 23.542 0.0406423 23.989V46.7486C0.0406423 47.1957 0.284495 47.6021 0.670595 47.8256L4.63321 50L0.629953 52.1744C0.243853 52.3979 0 52.8043 0 53.2514V76.011C0 76.458 0.243853 76.8645 0.629953 77.088L18.5125 86.8421C18.8783 87.0453 19.3253 87.0453 19.6708 86.8421L24.365 84.2817V89.0165C24.365 89.4635 24.6088 89.8699 24.9949 90.0935L42.8775 99.8476C43.2432 100.051 43.6903 100.051 44.0358 99.8476L61.9183 90.0935C62.3044 89.8699 62.5483 89.4635 62.5483 89.0165V84.2613L67.2424 86.8218C67.6082 87.025 68.0553 87.025 68.4007 86.8218L86.2833 77.0677C86.6694 76.8441 86.9132 76.4377 86.9132 75.9907V53.2514C86.9132 52.8043 86.6694 52.3979 86.2833 52.1744L82.341 50L86.3442 47.8256C86.7303 47.6021 86.9742 47.1957 86.9742 46.7486ZM67.8724 15.6167L83.2148 23.989L67.8724 32.3613L52.53 23.989L67.8724 15.6167ZM66.6531 83.7127L62.5889 81.4977V66.2569C62.5889 65.8098 62.3451 65.4034 61.959 65.1798L57.9557 63.0055L61.6338 60.9937L66.6531 63.737V83.7127ZM43.4871 74.6291L28.1447 66.2569L31.5586 64.3873L42.8978 70.5649C43.2636 70.7681 43.7106 70.7681 44.0561 70.5649L55.3952 64.3873L58.8092 66.2569L43.4871 74.6291ZM20.3211 34.4747L35.7651 26.0618V30.0854L25.0152 35.9378C24.6291 36.1614 24.3853 36.5678 24.3853 37.0148V52.2556L20.3211 54.4706V34.4747ZM26.8238 13.036L42.2678 21.4489V26.5088L38.2036 28.7238V23.989C38.2036 23.542 37.9598 23.1355 37.5737 22.912L26.8238 17.0595V13.036ZM60.1504 17.0595L49.4005 22.912C49.0144 23.1355 48.7706 23.542 48.7706 23.989V28.7442L44.7064 26.5292V21.4692L60.1504 13.0563V17.0595ZM44.7064 67.4558V47.4802L60.1504 39.0673V59.0429L44.7064 67.4558ZM43.4871 45.3668L28.1447 36.9945L43.4871 28.6222L58.8295 36.9945L43.4871 45.3668ZM26.8238 39.0469L42.2678 47.4599V67.4355L26.8238 59.0022V39.0469ZM61.959 35.9175L51.2091 30.065V26.0415L66.6531 34.4544V54.43L62.5889 52.2353V36.9945C62.5889 36.5475 62.3451 36.141 61.959 35.9175ZM43.4871 2.61126L58.8295 10.9835L43.4871 19.3558L28.1447 10.9835L43.4871 2.61126ZM19.1018 15.6167L34.4442 23.989L19.1018 32.3613L3.7594 23.989L19.1018 15.6167ZM2.43853 46.0171V26.0415L17.8825 34.4544V54.43L7.76265 48.9027L2.43853 46.0171ZM7.17334 51.3818L18.5125 57.5594C18.8783 57.7627 19.3253 57.7627 19.6708 57.5594L24.365 54.999V58.7381L19.0815 61.6237L3.7594 53.2514L7.17334 51.3818ZM2.43853 55.3038L17.8825 63.737V83.7127L2.43853 75.2794V55.3038ZM20.3211 83.7127V63.737L25.3404 60.9937L29.0185 63.0055L25.0152 65.1798C24.6291 65.4034 24.3853 65.8098 24.3853 66.2569V81.4977L20.3211 83.7127ZM26.8238 68.3093L42.2678 76.7425V96.7181L26.8238 88.2849V68.3093ZM60.1504 88.2849L44.7064 96.7181V76.7425L60.1504 68.3093V88.2849ZM69.0917 83.7127V63.737L84.5357 55.3038V75.2794L69.0917 83.7127ZM83.2148 53.2514L67.8724 61.6237L62.5889 58.7381V54.999L67.2831 57.5594C67.6489 57.7627 68.0959 57.7627 68.4414 57.5594L79.7805 51.3818L83.2148 53.2514ZM79.2115 48.923L69.0917 54.4503V34.4747L84.5357 26.0618V46.0374L79.2115 48.923Z" fill="#247778"/>
</svg>
