<svg width="117" height="100" viewBox="0 0 117 100" fill="none" xmlns="http://www.w3.org/2000/svg">
<path d="M116.116 14.4242C114.443 11.5218 113.399 9.62405 112.355 7.72719C111.3 5.80981 110.244 3.89312 108.554 0.962518C108.526 0.91384 108.485 0.876655 108.453 0.831132C108.42 0.783581 108.386 0.739861 108.348 0.695239C108.201 0.520584 108.035 0.365536 107.84 0.253982C107.838 0.25308 107.838 0.251503 107.836 0.250602C107.83 0.246996 107.823 0.247672 107.817 0.244066C107.627 0.139048 107.418 0.0775247 107.201 0.0414669C107.143 0.0317764 107.088 0.0229869 107.03 0.018705C106.982 0.0150992 106.936 0 106.888 0H10.4747C9.78734 0 9.1525 0.367113 8.80882 0.962518C7.11861 3.89312 6.06325 5.80959 5.00766 7.72719C3.96356 9.62428 2.91946 11.5218 1.24615 14.4242C1.22046 14.4686 1.21032 14.5182 1.18868 14.564C1.16299 14.6178 1.14248 14.6703 1.12175 14.7267C1.04423 14.9378 0.991718 15.1551 0.990591 15.3766C0.990591 15.3793 0.989014 15.3818 0.989014 15.3845C0.989014 15.3852 0.989464 15.3856 0.989464 15.3863C0.989464 15.6119 1.04355 15.833 1.12288 16.0475C1.14316 16.1018 1.16367 16.1528 1.18846 16.2046C1.21167 16.2533 1.22271 16.3056 1.25021 16.3527L49.4568 99.0451C49.8023 99.6367 50.4353 100 51.1188 100H66.2444C66.2448 100 66.2453 99.9998 66.2453 99.9998L66.2462 100C66.3481 100 66.4495 99.9759 66.5511 99.9594C66.6151 99.9491 66.6823 99.9504 66.7445 99.9337C66.7609 99.9292 66.7762 99.9186 66.7927 99.9137C66.9403 99.8695 67.0832 99.8118 67.2155 99.7343C67.2191 99.7323 67.2231 99.7316 67.2267 99.7296C67.2373 99.7233 67.2425 99.7122 67.2531 99.7057C67.4345 99.5934 67.5898 99.4456 67.7264 99.2773C67.7604 99.2353 67.7935 99.1961 67.8237 99.1517C67.8494 99.1141 67.8834 99.0846 67.9067 99.0449L116.113 16.3524C116.46 15.7577 116.46 15.0215 116.116 14.4242ZM8.37883 9.58191C9.30282 7.90207 10.2268 6.22222 11.5884 3.84647H103.584L66.4939 69.1983L61.3933 60.347L87.2629 16.3594C87.6122 15.7651 87.6161 15.0289 87.2742 14.4297C86.9305 13.8306 86.2939 13.4615 85.6047 13.4615H6.22235C7.04402 12.0041 7.71447 10.7869 8.37883 9.58191ZM59.1843 56.5143L43.2402 28.8465H75.4567L59.1843 56.5143ZM52.2229 96.1544L6.25841 17.308H82.2428L77.7187 25.0002H23.9306C22.8675 25.0002 22.0076 25.8613 22.0076 26.9232C22.0076 27.3316 22.1353 27.7111 22.353 28.0228L62.8633 96.1544H52.2229ZM66.2279 94.2878L27.3166 28.8465H38.8012L64.7924 73.9516C64.8093 73.9836 64.8262 74.0145 64.8449 74.0456C65.1886 74.6363 65.8252 75.0005 66.5087 75.0005C67.1961 75.0005 67.8309 74.6342 68.1746 74.0397C68.1989 73.9956 68.2235 73.9505 68.244 73.9045L106.892 5.81387C107.685 7.22283 108.339 8.40936 108.984 9.58168C109.919 11.2784 110.852 12.9763 112.229 15.3782L66.2279 94.2878Z" fill="#247778"/>
</svg>
